<?xml version="1.0" standalone="no"?>
<!DOCTYPE svg PUBLIC "-//W3C//DTD SVG 20010904//EN"
 "http://www.w3.org/TR/2001/REC-SVG-20010904/DTD/svg10.dtd">
<svg version="1.0" xmlns="http://www.w3.org/2000/svg"
 width="2000.000000pt" height="2000.000000pt" viewBox="0 0 2000.000000 2000.000000"
 preserveAspectRatio="xMidYMid meet">
<metadata>
Created by potrace 1.14, written by Peter Selinger 2001-2017
</metadata>
<g transform="translate(0.000000,2000.000000) scale(0.100000,-0.100000)"
fill="#000000" stroke="none">
<path d="M9730 16993 c-458 -20 -878 -76 -1310 -175 -1595 -366 -3015 -1291
-4013 -2613 -522 -692 -924 -1505 -1152 -2330 -260 -943 -321 -1932 -179
-2905 405 -2782 2482 -5078 5209 -5759 546 -136 1015 -198 1585 -208 529 -10
967 27 1465 123 1946 376 3647 1569 4672 3279 962 1604 1238 3524 768 5350
-553 2155 -2128 3935 -4210 4758 -884 350 -1895 521 -2835 480z m650 -1003
c1308 -91 2474 -558 3481 -1396 193 -161 567 -533 726 -724 926 -1112 1412
-2442 1413 -3867 1 -1628 -646 -3163 -1811 -4298 -917 -893 -2067 -1461 -3329
-1644 -306 -45 -470 -55 -860 -55 -402 0 -557 10 -894 60 -1008 150 -1978 565
-2786 1194 -1226 954 -2039 2348 -2259 3875 -70 484 -80 1050 -26 1530 134
1188 596 2265 1371 3196 161 193 533 567 724 726 1004 836 2183 1312 3470
1402 169 12 613 12 780 1z"/>
<path d="M9525 14520 c-49 -29 -840 -487 -1010 -584 l-90 -52 -5 -2139 -5
-2140 -43 -120 c-127 -350 -225 -530 -366 -670 -76 -76 -192 -159 -211 -151
-7 2 -184 110 -394 239 l-382 235 -559 -320 -560 -319 0 -289 0 -288 49 -173
c94 -332 151 -455 279 -606 85 -101 219 -188 788 -508 249 -141 558 -293 668
-329 77 -25 84 -26 360 -26 l283 0 199 99 c491 243 815 463 1105 751 410 407
683 901 953 1730 37 113 69 212 72 220 4 11 15 5 41 -25 102 -116 183 -275
240 -471 l38 -129 3 -1147 2 -1147 73 -44 c39 -25 296 -178 570 -341 l497
-297 388 227 c213 125 474 278 580 341 l192 114 0 1119 0 1119 -46 223 c-292
1421 -695 2115 -1535 2640 -211 132 -492 272 -784 389 l-170 69 -5 1052 -5
1052 -585 357 c-322 197 -587 358 -590 358 -3 -1 -18 -9 -35 -19z m-377 -1035
l472 -269 0 -1103 0 -1102 38 -10 c20 -6 111 -28 202 -51 807 -201 1294 -435
1626 -783 404 -422 616 -1017 699 -1962 12 -139 15 -382 15 -1327 0 -637 -3
-1158 -6 -1158 -3 0 -223 127 -490 281 l-484 282 0 1052 0 1052 -40 144 c-87
318 -173 531 -277 687 -62 94 -282 319 -393 403 -183 138 -387 189 -578 144
-232 -55 -292 -184 -308 -663 l-6 -187 -114 -233 c-300 -616 -524 -875 -893
-1031 -67 -28 -83 -31 -181 -31 -280 0 -446 85 -536 275 -40 82 -82 240 -90
334 l-5 66 53 35 c101 67 243 188 344 292 194 202 314 425 423 788 l41 135 0
2108 c0 1160 3 2107 8 2104 4 -2 220 -124 480 -272z m-2548 -5396 l457 -262 7
-136 c18 -361 81 -539 275 -781 l50 -63 -20 -28 c-11 -16 -25 -29 -31 -29 -5
0 -211 116 -456 258 -501 289 -467 262 -566 452 -90 173 -131 306 -156 505
-12 98 -27 345 -21 345 2 0 209 -118 461 -261z"/>
<path d="M8010 12926 c-30 -13 -149 -69 -265 -126 -115 -56 -273 -133 -351
-170 -125 -61 -143 -72 -158 -105 -36 -75 -3 -125 126 -188 421 -206 683 -327
708 -327 32 0 62 31 86 89 31 74 15 96 -113 160 l-83 41 0 178 0 177 80 38
c106 51 130 71 130 108 0 39 -32 102 -66 128 -32 25 -27 26 -94 -3z m-245
-524 c-3 -3 -42 12 -87 34 l-81 40 84 40 84 41 3 -75 c2 -41 0 -77 -3 -80z"/>
<path d="M7999 11953 c-15 -2 -35 -13 -45 -25 -17 -18 -19 -43 -22 -249 l-4
-229 -64 0 -64 0 0 159 0 160 -26 20 c-41 32 -136 30 -169 -4 -24 -24 -25 -28
-25 -180 l0 -155 -64 0 -65 0 -3 231 c-3 229 -3 231 -27 250 -33 27 -139 27
-172 0 l-24 -19 0 -321 c0 -320 0 -320 23 -343 l23 -23 419 0 419 0 23 23 c23
23 23 23 23 342 0 307 -1 320 -20 340 -21 20 -87 32 -136 23z"/>
<path d="M7254 11096 c-25 -21 -28 -29 -28 -91 l0 -68 46 -42 c25 -23 116 -95
202 -160 86 -65 156 -121 156 -124 -1 -3 -78 -64 -173 -136 -215 -163 -222
-170 -231 -223 -8 -53 8 -118 34 -132 25 -13 834 -14 860 0 44 24 50 150 9
191 -18 18 -35 19 -259 19 -132 0 -240 3 -240 8 1 4 59 49 130 101 148 107
170 138 151 202 -12 41 -47 73 -195 180 l-90 64 242 5 c235 5 242 6 264 28 19
19 23 33 23 88 0 60 -3 68 -28 90 l-28 24 -409 0 -409 0 -27 -24z"/>
<path d="M7283 9992 c-38 -29 -73 -84 -73 -114 0 -33 22 -56 224 -232 l138
-121 -151 -5 c-140 -5 -152 -7 -173 -28 -19 -19 -23 -33 -23 -88 0 -60 3 -68
28 -90 l28 -24 409 0 409 0 28 24 c25 22 28 30 28 90 0 55 -4 69 -23 88 -21
21 -33 23 -174 28 l-151 5 144 126 c166 145 219 201 219 229 0 26 -45 95 -76
115 -56 37 -74 26 -272 -169 l-132 -131 -143 141 c-78 78 -153 149 -167 158
-31 21 -69 20 -97 -2z"/>
</g>
</svg>
